# xmcd CD database file generated by Grip 2.95
# 
# Track frame offsets:
#       150
#       12875
#       29515
#       37372
#       58680
#       78730
#       87575
#       116785
#       140555
#       151450
#       171655
#       192380
# 
# Disc length: 2956 seconds
# 
# Revision: 3
# Processed by: cddbd v1.5.2PL0 Copyright (c) Steve Scherf et al.
# Submitted via: Grip 2.95
# 
DISCID=b50b8a0c
DTITLE=Yuri Naumov - Guitar Stories
DYEAR=2001
DGENRE=Blues
TTITLE0=Sneaky Blues
TTITLE1=Swinging Cat
TTITLE2=Water
TTITLE3=Ping Pong Blues
TTITLE4=October
TTITLE5=Night Pub
TTITLE6=Night on the Highway
TTITLE7=To the Angel of St.Petersburg
TTITLE8=Breaking from the chase
TTITLE9=December night by the fireplace
TTITLE10=New York 5th Avenue
TTITLE11=April Night
EXTD=
EXTT0=
EXTT1=
EXTT2=
EXTT3=
EXTT4=
EXTT5=
EXTT6=
EXTT7=
EXTT8=
EXTT9=
EXTT10=
EXTT11=
PLAYORDER=
